name rise37.2698peak67.6939fall79.5734.mot
datacolumns 19
datarows 35
range 22.13491400000000 22.19158600000000
endheader
time	ground_force1_vx	ground_force1_vy	ground_force1_vz	ground_force1_px	ground_force1_py	ground_force1_pz	ground_force2_vx	ground_force2_vy	ground_force2_vz	ground_force2_px	ground_force2_py	ground_force2_pz	ground_torque1_x	ground_torque1_y	ground_torque1_z	ground_torque2_x	ground_torque2_y	ground_torque2_z	
22.13491400000000	-5.15672200000000	40.57674800000000	-8.71941800000000	0.35919100000000	0.00000000000000	0.09894900000000	-55.17879400000000	801.13356299999998	-46.45653300000000	0.16573400000000	0.00000000000000	-0.06732300000000	0.00000000000000	-6.67805100000000	0.00000000000000	0.00000000000000	-20.67639000000000	0.00000000000000	
22.13658800000000	-5.60148700000000	47.65346400000000	-9.76343400000000	0.36203300000000	0.00000000000000	0.10009000000000	-56.02216700000000	798.60597099999995	-46.19003300000000	0.16448100000000	0.00000000000000	-0.06725900000000	0.00000000000000	-7.52596600000000	0.00000000000000	0.00000000000000	-20.60453300000000	0.00000000000000	
22.13825300000000	-5.93156200000000	54.84288000000000	-10.69688800000000	0.36474800000000	0.00000000000000	0.10111100000000	-56.87114100000000	795.94357900000000	-45.90754800000000	0.16322700000000	0.00000000000000	-0.06719400000000	0.00000000000000	-8.30166400000000	0.00000000000000	0.00000000000000	-20.53107700000000	0.00000000000000	
22.13991700000000	-6.13171800000000	62.05382800000000	-11.49652400000000	0.36735800000000	0.00000000000000	0.10203100000000	-57.72478600000000	793.14327100000003	-45.60893200000000	0.16197200000000	0.00000000000000	-0.06712800000000	0.00000000000000	-8.98711200000000	0.00000000000000	0.00000000000000	-20.45596400000000	0.00000000000000	
22.14158400000000	-6.19278400000000	69.21658900000000	-12.14717700000000	0.36987700000000	0.00000000000000	0.10286600000000	-58.58210000000000	790.20193300000005	-45.29404900000000	0.16071700000000	0.00000000000000	-0.06706100000000	0.00000000000000	-9.57019900000000	0.00000000000000	0.00000000000000	-20.37912800000000	0.00000000000000	
22.14324700000000	-6.11154300000000	76.28513599999999	-12.64182100000000	0.37232000000000	0.00000000000000	0.10362800000000	-59.44201400000000	787.11645999999996	-44.96277600000000	0.15946400000000	0.00000000000000	-0.06699200000000	0.00000000000000	-10.04487000000000	0.00000000000000	0.00000000000000	-20.30049600000000	0.00000000000000	
22.14492100000000	-5.89016800000000	83.23704600000001	-12.98096500000000	0.37469500000000	0.00000000000000	0.10432800000000	-60.30339000000000	783.88376700000003	-44.61500600000000	0.15821400000000	0.00000000000000	-0.06692200000000	0.00000000000000	-10.41074100000000	0.00000000000000	0.00000000000000	-20.21998800000000	0.00000000000000	
22.14658900000000	-5.53531500000000	90.07149200000001	-13.17151800000000	0.37701000000000	0.00000000000000	0.10497300000000	-61.16502000000000	780.50080100000002	-44.25064600000000	0.15696700000000	0.00000000000000	-0.06685100000000	0.00000000000000	-10.67231600000000	0.00000000000000	0.00000000000000	-20.13751700000000	0.00000000000000	
22.14825100000000	-5.05701000000000	96.80579700000000	-13.22533600000000	0.37927300000000	0.00000000000000	0.10557000000000	-62.02563000000000	776.96455000000003	-43.86961800000000	0.15572500000000	0.00000000000000	-0.06677800000000	0.00000000000000	-10.83792900000000	0.00000000000000	0.00000000000000	-20.05298900000000	0.00000000000000	
22.14991300000000	-4.46745500000000	103.47110600000001	-13.15761400000000	0.38148800000000	0.00000000000000	0.10612500000000	-62.88387900000000	773.27205300000003	-43.47186300000000	0.15449000000000	0.00000000000000	-0.06670400000000	0.00000000000000	-10.91856500000000	0.00000000000000	0.00000000000000	-19.96630200000000	0.00000000000000	
22.15158200000000	-3.77987500000000	110.10766700000001	-12.98527800000000	0.38366000000000	0.00000000000000	0.10664300000000	-63.73836100000000	769.42041500000005	-43.05734100000000	0.15326200000000	0.00000000000000	-0.06662700000000	0.00000000000000	-10.92665000000000	0.00000000000000	0.00000000000000	-19.87734900000000	0.00000000000000	
22.15325500000000	-3.00748100000000	116.76018999999999	-12.72552600000000	0.38579100000000	0.00000000000000	0.10712700000000	-64.58760700000001	765.40681400000005	-42.62603000000000	0.15204300000000	0.00000000000000	-0.06654900000000	0.00000000000000	-10.87494000000000	0.00000000000000	0.00000000000000	-19.78601800000000	0.00000000000000	
22.15492000000000	-2.16261300000000	123.47363100000000	-12.39459000000000	0.38788500000000	0.00000000000000	0.10758200000000	-65.43008700000000	761.22851700000001	-42.17793100000000	0.15083400000000	0.00000000000000	-0.06646900000000	0.00000000000000	-10.77556100000000	0.00000000000000	0.00000000000000	-19.69218800000000	0.00000000000000	
22.15658600000000	-1.25610800000000	130.28966900000000	-12.00678700000000	0.38994300000000	0.00000000000000	0.10800900000000	-66.26420899999999	756.88289199999997	-41.71306500000000	0.14963500000000	0.00000000000000	-0.06638700000000	0.00000000000000	-10.63926600000000	0.00000000000000	0.00000000000000	-19.59573500000000	0.00000000000000	
22.15825200000000	-0.29689800000000	137.24400800000001	-11.57388400000000	0.39196700000000	0.00000000000000	0.10841200000000	-67.08832600000000	752.36741900000004	-41.23148000000000	0.14844900000000	0.00000000000000	-0.06630300000000	0.00000000000000	-10.47491600000000	0.00000000000000	0.00000000000000	-19.49652800000000	0.00000000000000	
22.15991700000000	0.70817900000000	144.36458999999999	-11.10476600000000	0.39395900000000	0.00000000000000	0.10879300000000	-67.90073700000001	747.67970400000002	-40.73324400000000	0.14727600000000	0.00000000000000	-0.06621700000000	0.00000000000000	-10.28919800000000	0.00000000000000	0.00000000000000	-19.39443200000000	0.00000000000000	
22.16158500000000	1.75436400000000	151.67067000000000	-10.60538300000000	0.39591800000000	0.00000000000000	0.10915400000000	-68.69968700000000	742.81749600000001	-40.21845300000000	0.14611800000000	0.00000000000000	-0.06612800000000	0.00000000000000	-10.08655000000000	0.00000000000000	0.00000000000000	-19.28930700000000	0.00000000000000	
22.16325000000000	2.83881100000000	159.17267100000001	-10.07892100000000	0.39784600000000	0.00000000000000	0.10949600000000	-69.48337600000001	737.77869699999997	-39.68723000000000	0.14497500000000	0.00000000000000	-0.06603700000000	0.00000000000000	-9.86926800000000	0.00000000000000	0.00000000000000	-19.18101000000000	0.00000000000000	
22.16491500000000	3.96029600000000	166.87269900000001	-9.52615600000000	0.39974200000000	0.00000000000000	0.10982100000000	-70.24995500000000	732.56137999999999	-39.13972300000000	0.14384900000000	0.00000000000000	-0.06594400000000	0.00000000000000	-9.63775800000000	0.00000000000000	0.00000000000000	-19.06939100000000	0.00000000000000	
22.16658500000000	5.11886300000000	174.76553999999999	-8.94591900000000	0.40160800000000	0.00000000000000	0.11013000000000	-70.99753500000000	727.16380200000003	-38.57611100000000	0.14274100000000	0.00000000000000	-0.06584700000000	0.00000000000000	-9.39087500000000	0.00000000000000	0.00000000000000	-18.95429900000000	0.00000000000000	
22.16825000000000	6.31542200000000	182.83998800000001	-8.33562900000000	0.40344300000000	0.00000000000000	0.11042400000000	-71.72419100000000	721.58442300000002	-37.99659900000000	0.14165100000000	0.00000000000000	-0.06574800000000	0.00000000000000	-9.12632800000000	0.00000000000000	0.00000000000000	-18.83558100000000	0.00000000000000	
22.16991400000000	7.55136300000000	191.08034100000000	-7.69182900000000	0.40524600000000	0.00000000000000	0.11070500000000	-72.42796199999999	715.82191499999999	-37.40142400000000	0.14058100000000	0.00000000000000	-0.06564700000000	0.00000000000000	-8.84109200000000	0.00000000000000	0.00000000000000	-18.71307700000000	0.00000000000000	
22.17157900000000	8.82819100000000	199.46792400000001	-7.01069700000000	0.40701700000000	0.00000000000000	0.11097200000000	-73.10685900000000	709.87518599999999	-36.79085200000000	0.13953200000000	0.00000000000000	-0.06554200000000	0.00000000000000	-8.53179800000000	0.00000000000000	0.00000000000000	-18.58662900000000	0.00000000000000	
22.17325300000000	10.14722100000000	207.98251400000001	-6.28848700000000	0.40875600000000	0.00000000000000	0.11122800000000	-73.75886500000000	703.74338799999998	-36.16517900000000	0.13850500000000	0.00000000000000	-0.06543400000000	0.00000000000000	-8.19509400000000	0.00000000000000	0.00000000000000	-18.45607600000000	0.00000000000000	
22.17491800000000	11.50933200000000	216.60360100000000	-5.52189300000000	0.41046200000000	0.00000000000000	0.11147200000000	-74.38194799999999	697.42593599999998	-35.52473100000000	0.13750000000000	0.00000000000000	-0.06532300000000	0.00000000000000	-7.82792300000000	0.00000000000000	0.00000000000000	-18.32125300000000	0.00000000000000	
22.17658600000000	12.91479400000000	225.31139999999999	-4.70831700000000	0.41213500000000	0.00000000000000	0.11170500000000	-74.97405500000001	690.92251699999997	-34.86986700000000	0.13651800000000	0.00000000000000	-0.06520900000000	0.00000000000000	-7.42775300000000	0.00000000000000	0.00000000000000	-18.18199600000000	0.00000000000000	
22.17825100000000	14.36317000000000	234.08761600000000	-3.84603500000000	0.41377300000000	0.00000000000000	0.11192900000000	-75.53312800000000	684.23310900000001	-34.20097600000000	0.13556100000000	0.00000000000000	-0.06509200000000	0.00000000000000	-6.99271400000000	0.00000000000000	0.00000000000000	-18.03814300000000	0.00000000000000	
22.17992000000000	15.85327600000000	242.91592800000001	-2.93428400000000	0.41537500000000	0.00000000000000	0.11214200000000	-76.05710200000000	677.35798399999999	-33.51847800000000	0.13462800000000	0.00000000000000	-0.06497100000000	0.00000000000000	-6.52167400000000	0.00000000000000	0.00000000000000	-17.88952800000000	0.00000000000000	
22.18158600000000	17.38320200000000	251.78224100000000	-1.97326100000000	0.41694100000000	0.00000000000000	0.11234700000000	-76.54391500000000	670.29772300000002	-32.82282600000000	0.13372100000000	0.00000000000000	-0.06484700000000	0.00000000000000	-6.01425500000000	0.00000000000000	0.00000000000000	-17.73598900000000	0.00000000000000	
22.18325100000000	18.95037300000000	260.67470900000001	-0.96406200000000	0.41847000000000	0.00000000000000	0.11254300000000	-76.99151200000000	663.05321700000002	-32.11450500000000	0.13284000000000	0.00000000000000	-0.06472000000000	0.00000000000000	-5.47079100000000	0.00000000000000	0.00000000000000	-17.57736400000000	0.00000000000000	
22.18491400000000	20.55164200000000	269.58359799999999	0.09142500000000	0.41996000000000	0.00000000000000	0.11273000000000	-77.39785300000000	655.62567600000000	-31.39403100000000	0.13198500000000	0.00000000000000	-0.06458800000000	0.00000000000000	-4.89225200000000	0.00000000000000	0.00000000000000	-17.41349700000000	0.00000000000000	
22.18658800000000	22.18340300000000	278.50101400000000	1.19065700000000	0.42141100000000	0.00000000000000	0.11290900000000	-77.76092400000000	648.01662899999997	-30.66195600000000	0.13115900000000	0.00000000000000	-0.06445300000000	0.00000000000000	-4.28014100000000	0.00000000000000	0.00000000000000	-17.24423200000000	0.00000000000000	
22.18825100000000	23.84171200000000	287.42056000000002	2.33058900000000	0.42282100000000	0.00000000000000	0.11308100000000	-78.07873600000001	640.22792100000004	-29.91886300000000	0.13036000000000	0.00000000000000	-0.06431400000000	0.00000000000000	-3.63637900000000	0.00000000000000	0.00000000000000	-17.06942100000000	0.00000000000000	
22.18991300000000	25.52240200000000	296.33695499999999	3.50782400000000	0.42418900000000	0.00000000000000	0.11324500000000	-78.34934199999999	632.26171599999998	-29.16537000000000	0.12958900000000	0.00000000000000	-0.06417200000000	0.00000000000000	-2.96318900000000	0.00000000000000	0.00000000000000	-16.88892100000000	0.00000000000000	
22.19158600000000	27.22118900000000	305.24565500000000	4.71875700000000	0.42551400000000	0.00000000000000	0.11340100000000	-78.57084399999999	624.12049300000001	-28.40213200000000	0.12884700000000	0.00000000000000	-0.06402500000000	0.00000000000000	-2.26298300000000	0.00000000000000	0.00000000000000	-16.70259800000000	0.00000000000000	
